<svg xmlns="http://www.w3.org/2000/svg" viewBox="0 0 600 600"><g fill="none" stroke="#000" stroke-width="20"><path d="M 240.0003 29.9867 C 124.02051000000002 29.9867 30.000320000000016 123.96576999999999 30.000320000000016 239.89486 C 30.000320000000016 331.50507 88.71196000000002 409.40842999999995 170.57598000000002 438.06126 C 188.85394000000002 444.45865 208.28606000000002 448.40088000000003 228.47656 449.49234 C 231.64453 449.83123 234.95822 450.00013 238.40984 450.00013 C 240.99276 450.00013 243.49571 449.90755 245.91569 449.72135000000003 C 359.16020000000003 446.59057 450.00026 353.84649 450.00026 239.89487000000003 C 450.00026 161.74980000000002 407.27947 93.57834000000003 343.90898000000004 57.44205000000002 C 359.21605000000005 81.63077000000003 368.25816000000003 112.86588000000003 368.21525 150.00301000000002 C 368.14079000000004 229.56148000000002 298.05332000000004 295.94112 261.53831 324.62651000000005 C 283.56861000000004 342.33287000000007 313.14320000000004 373.62550000000005 314.61637 403.9116700000001 C 314.83149000000003 416.8025400000001 312.56266 428.43343000000004 308.15464000000003 438.50112000000007 C 288.55699000000004 445.2188300000001 267.65065000000004 449.11996000000005 245.91924000000003 449.7210800000001 C 274.91639000000004 447.48883000000006 291.99937 431.81486000000007 291.99937 400.9269500000001 L 291.9994 400.9269500000001 C 292.19142 367.7610600000001 243.61453999999998 334.0000100000001 237.53330999999997 334.00013000000007 C 232.01319999999998 334.1746300000001 183.99997999999997 366.85969000000006 183.99997999999997 400.30811000000006 C 183.99997999999997 430.35848000000004 200.59286999999998 446.50825000000003 228.47280999999998 449.49193 C 208.28360999999998 448.40016 188.85271999999998 444.45798 170.57584999999997 438.06095000000005 C 165.67095999999998 427.51139000000006 163.12084999999996 415.58979000000005 163.43425999999997 403.04395000000005 C 163.46941999999996 371.89420000000007 194.27711999999997 340.41156000000007 216.56425999999996 323.25495000000006 C 180.17684999999994 293.66163000000006 113.97919999999996 227.39823000000007 110.06172999999997 148.21349000000006 C 108.34577999999996 113.52514000000006 116.05167999999998 84.21256000000007 130.00988999999998 61.04765000000006 C 161.99146 41.35428000000006 199.65526 29.991880000000062 239.97361999999998 29.98678000000006 C 181.99361 30.00076000000006 129.17469999999997 74.86579000000006 132.99258999999998 152.04574000000005 C 137.38445 240.81941000000006 235.82716999999997 308.8731200000001 238.99026999999998 308.8650600000001 C 239.21113999999997 309.2321600000001 239.86120999999997 309.4600900000001 240.55033999999998 309.6013000000001 C 248.87124999999997 304.9196900000001 345.51023999999995 238.3074900000001 345.58961999999997 153.5194700000001 C 345.67888 76.2456100000001 298.00489999999996 30.0007600000001 240.02703999999997 29.9867900000001 C 257.36690999999996 29.9889100000001 274.21579999999994 32.0917200000001 290.33284999999995 36.0544900000001 C 274.20752999999996 32.0896700000001 257.3496099999999 29.9867100000001 240.00028999999995 29.9867100000001 Z M 228.47657 449.49233 C 228.47532 449.49219999999997 228.47407 449.49206 228.47282 449.49192999999997 C 232.28920000000002 449.69831 236.13268000000002 449.80283 240.00058 449.80283 C 241.97999000000002 449.80283 243.953 449.77545999999995 245.91926 449.72107 C 245.91807 449.72116 245.91689 449.72125 245.91570000000002 449.72134 C 243.95053000000001 449.77567 241.97861 449.80301 240.0003 449.80301 C 236.13376000000002 449.80301 232.29162000000002 449.69856 228.47656 449.49233 Z M 239.99029 309.8646 C 239.99391 309.8646 239.9974 309.86451 240.00075999999999 309.86433 C 239.99728 309.86439 239.99379 309.86451 239.99029 309.8646 Z M 470.00014 239.99993 C 470.00014 367.02541 367.02572999999995 469.9999 240.00036999999998 469.9999 C 112.97499999999998 469.9999 10.000599999999963 367.02541 10.000599999999963 239.99993000000003 C 10.000599999999963 112.97445000000003 112.97500999999997 9.999960000000044 240.00036999999998 9.999960000000044 C 367.02574 9.999960000000044 470.00014 112.97445000000005 470.00014 239.99993000000003 Z" fill="#000000" fill-rule="nonzero" stroke="none" stroke-width="31.72413" stroke-linecap="butt" stroke-linejoin="miter" stroke-miterlimit="10" stroke-dasharray="" stroke-dashoffset="0" font-family="none" font-weight="none" font-size="none" text-anchor="none" style="mix-blend-mode: normal"></path></g></svg>